<svg id="visual" viewBox="0 0 900 600" width="900" height="600" xmlns="http://www.w3.org/2000/svg" xmlns:xlink="http://www.w3.org/1999/xlink" version="1.1"><g stroke-width="1" stroke-linejoin="bevel"><path d="M453 323.9L551 284.1L466 260.1Z" fill="#7671f1" stroke="#7671f1"></path><path d="M453 323.9L553 333.9L551 284.1Z" fill="#857cee" stroke="#857cee"></path><path d="M554 200.4L475 200.4L466 260.1Z" fill="#4f5cf7" stroke="#4f5cf7"></path><path d="M466 260.1L336 294.1L453 323.9Z" fill="#9287eb" stroke="#9287eb"></path><path d="M633 292.1L554 200.4L551 284.1Z" fill="#9e92e8" stroke="#9e92e8"></path><path d="M551 284.1L554 200.4L466 260.1Z" fill="#6566f4" stroke="#6566f4"></path><path d="M627 403.6L626 342.9L553 333.9Z" fill="#7e76f0" stroke="#7e76f0"></path><path d="M553 333.9L633 292.1L551 284.1Z" fill="#7e76f0" stroke="#7e76f0"></path><path d="M472 437.6L544 425.6L553 333.9Z" fill="#7e76f0" stroke="#7e76f0"></path><path d="M626 342.9L633 292.1L553 333.9Z" fill="#8c81ed" stroke="#8c81ed"></path><path d="M453 323.9L472 437.6L553 333.9Z" fill="#857cee" stroke="#857cee"></path><path d="M544 425.6L627 403.6L553 333.9Z" fill="#857cee" stroke="#857cee"></path><path d="M626 342.9L688 350.9L633 292.1Z" fill="#6e6bf3" stroke="#6e6bf3"></path><path d="M345 142.4L336 294.1L466 260.1Z" fill="#5b61f6" stroke="#5b61f6"></path><path d="M453 323.9L363 407.6L472 437.6Z" fill="#9e92e8" stroke="#9e92e8"></path><path d="M325 369.9L363 407.6L453 323.9Z" fill="#6e6bf3" stroke="#6e6bf3"></path><path d="M363 407.6L471 479.3L472 437.6Z" fill="#5b61f6" stroke="#5b61f6"></path><path d="M472 437.6L471 479.3L544 425.6Z" fill="#857cee" stroke="#857cee"></path><path d="M544 425.6L577 534.3L627 403.6Z" fill="#5b61f6" stroke="#5b61f6"></path><path d="M336 294.1L325 369.9L453 323.9Z" fill="#6566f4" stroke="#6566f4"></path><path d="M627 403.6L688 350.9L626 342.9Z" fill="#988cea" stroke="#988cea"></path><path d="M633 292.1L643 155.4L554 200.4Z" fill="#4f5cf7" stroke="#4f5cf7"></path><path d="M706 181.4L643 155.4L633 292.1Z" fill="#9e92e8" stroke="#9e92e8"></path><path d="M526 72.7L441 100.7L475 200.4Z" fill="#7671f1" stroke="#7671f1"></path><path d="M526 72.7L475 200.4L554 200.4Z" fill="#9287eb" stroke="#9287eb"></path><path d="M475 200.4L345 142.4L466 260.1Z" fill="#6e6bf3" stroke="#6e6bf3"></path><path d="M441 100.7L345 142.4L475 200.4Z" fill="#7671f1" stroke="#7671f1"></path><path d="M336 294.1L284 351.9L325 369.9Z" fill="#9287eb" stroke="#9287eb"></path><path d="M234 252.1L284 351.9L336 294.1Z" fill="#9287eb" stroke="#9287eb"></path><path d="M325 369.9L299 462.6L363 407.6Z" fill="#4f5cf7" stroke="#4f5cf7"></path><path d="M643 155.4L526 72.7L554 200.4Z" fill="#6e6bf3" stroke="#6e6bf3"></path><path d="M738 277.1L706 181.4L633 292.1Z" fill="#4f5cf7" stroke="#4f5cf7"></path><path d="M601 0L525 0L526 72.7Z" fill="#7671f1" stroke="#7671f1"></path><path d="M688 350.9L738 277.1L633 292.1Z" fill="#5b61f6" stroke="#5b61f6"></path><path d="M471 479.3L577 534.3L544 425.6Z" fill="#9e92e8" stroke="#9e92e8"></path><path d="M627 403.6L755 425.6L688 350.9Z" fill="#9e92e8" stroke="#9e92e8"></path><path d="M688 350.9L797 332.9L738 277.1Z" fill="#4f5cf7" stroke="#4f5cf7"></path><path d="M441 100.7L324 112.7L345 142.4Z" fill="#9287eb" stroke="#9287eb"></path><path d="M249 170.4L234 252.1L336 294.1Z" fill="#9e92e8" stroke="#9e92e8"></path><path d="M378 0L324 112.7L441 100.7Z" fill="#8c81ed" stroke="#8c81ed"></path><path d="M284 351.9L299 462.6L325 369.9Z" fill="#7e76f0" stroke="#7e76f0"></path><path d="M363 407.6L332 509.3L471 479.3Z" fill="#9287eb" stroke="#9287eb"></path><path d="M471 479.3L486 600L577 534.3Z" fill="#4f5cf7" stroke="#4f5cf7"></path><path d="M299 462.6L332 509.3L363 407.6Z" fill="#4f5cf7" stroke="#4f5cf7"></path><path d="M249 170.4L336 294.1L345 142.4Z" fill="#6566f4" stroke="#6566f4"></path><path d="M284 351.9L210 366.9L299 462.6Z" fill="#9e92e8" stroke="#9e92e8"></path><path d="M577 534.3L665 516.3L627 403.6Z" fill="#9287eb" stroke="#9287eb"></path><path d="M324 112.7L249 170.4L345 142.4Z" fill="#9287eb" stroke="#9287eb"></path><path d="M665 516.3L755 425.6L627 403.6Z" fill="#7671f1" stroke="#7671f1"></path><path d="M190 430.6L210 366.9L117 374.9Z" fill="#9287eb" stroke="#9287eb"></path><path d="M234 252.1L210 366.9L284 351.9Z" fill="#857cee" stroke="#857cee"></path><path d="M299 462.6L288 532.3L332 509.3Z" fill="#9e92e8" stroke="#9e92e8"></path><path d="M755 425.6L797 332.9L688 350.9Z" fill="#8c81ed" stroke="#8c81ed"></path><path d="M738 277.1L808 230.1L706 181.4Z" fill="#6e6bf3" stroke="#6e6bf3"></path><path d="M363 600L486 600L471 479.3Z" fill="#7671f1" stroke="#7671f1"></path><path d="M577 534.3L655 600L665 516.3Z" fill="#6e6bf3" stroke="#6e6bf3"></path><path d="M669 49.7L526 72.7L643 155.4Z" fill="#5b61f6" stroke="#5b61f6"></path><path d="M526 72.7L417 0L441 100.7Z" fill="#857cee" stroke="#857cee"></path><path d="M734 63.7L643 155.4L706 181.4Z" fill="#8c81ed" stroke="#8c81ed"></path><path d="M734 63.7L669 49.7L643 155.4Z" fill="#4f5cf7" stroke="#4f5cf7"></path><path d="M486 600L557 600L577 534.3Z" fill="#4f5cf7" stroke="#4f5cf7"></path><path d="M525 0L417 0L526 72.7Z" fill="#7671f1" stroke="#7671f1"></path><path d="M324 112.7L269 87.7L249 170.4Z" fill="#7671f1" stroke="#7671f1"></path><path d="M655 600L706 536.3L665 516.3Z" fill="#9287eb" stroke="#9287eb"></path><path d="M665 516.3L706 536.3L755 425.6Z" fill="#6e6bf3" stroke="#6e6bf3"></path><path d="M755 425.6L845 394.6L797 332.9Z" fill="#7671f1" stroke="#7671f1"></path><path d="M378 0L269 87.7L324 112.7Z" fill="#6566f4" stroke="#6566f4"></path><path d="M208 516.3L288 532.3L299 462.6Z" fill="#8c81ed" stroke="#8c81ed"></path><path d="M332 509.3L363 600L471 479.3Z" fill="#6e6bf3" stroke="#6e6bf3"></path><path d="M797 332.9L808 230.1L738 277.1Z" fill="#5b61f6" stroke="#5b61f6"></path><path d="M669 49.7L601 0L526 72.7Z" fill="#7671f1" stroke="#7671f1"></path><path d="M417 0L378 0L441 100.7Z" fill="#7671f1" stroke="#7671f1"></path><path d="M288 532.3L363 600L332 509.3Z" fill="#7671f1" stroke="#7671f1"></path><path d="M813 94.7L734 63.7L706 181.4Z" fill="#8c81ed" stroke="#8c81ed"></path><path d="M669 49.7L705 0L601 0Z" fill="#9287eb" stroke="#9287eb"></path><path d="M172 221.1L210 366.9L234 252.1Z" fill="#7e76f0" stroke="#7e76f0"></path><path d="M210 366.9L190 430.6L299 462.6Z" fill="#7671f1" stroke="#7671f1"></path><path d="M557 600L655 600L577 534.3Z" fill="#7e76f0" stroke="#7e76f0"></path><path d="M142 137.4L172 221.1L249 170.4Z" fill="#7671f1" stroke="#7671f1"></path><path d="M249 170.4L172 221.1L234 252.1Z" fill="#7671f1" stroke="#7671f1"></path><path d="M254 0L210 99.7L269 87.7Z" fill="#4f5cf7" stroke="#4f5cf7"></path><path d="M269 87.7L210 99.7L249 170.4Z" fill="#4f5cf7" stroke="#4f5cf7"></path><path d="M808 490.3L845 394.6L755 425.6Z" fill="#5b61f6" stroke="#5b61f6"></path><path d="M797 332.9L900 313.9L808 230.1Z" fill="#6e6bf3" stroke="#6e6bf3"></path><path d="M808 490.3L755 425.6L706 536.3Z" fill="#6e6bf3" stroke="#6e6bf3"></path><path d="M655 600L699 600L706 536.3Z" fill="#6566f4" stroke="#6566f4"></path><path d="M833 600L808 490.3L706 536.3Z" fill="#7e76f0" stroke="#7e76f0"></path><path d="M734 63.7L705 0L669 49.7Z" fill="#9e92e8" stroke="#9e92e8"></path><path d="M190 430.6L208 516.3L299 462.6Z" fill="#857cee" stroke="#857cee"></path><path d="M288 532.3L286 600L363 600Z" fill="#988cea" stroke="#988cea"></path><path d="M200 600L286 600L288 532.3Z" fill="#5b61f6" stroke="#5b61f6"></path><path d="M900 182.4L834 134.4L808 230.1Z" fill="#5b61f6" stroke="#5b61f6"></path><path d="M808 230.1L834 134.4L706 181.4Z" fill="#988cea" stroke="#988cea"></path><path d="M734 63.7L811 0L705 0Z" fill="#857cee" stroke="#857cee"></path><path d="M834 134.4L813 94.7L706 181.4Z" fill="#7671f1" stroke="#7671f1"></path><path d="M378 0L254 0L269 87.7Z" fill="#7e76f0" stroke="#7e76f0"></path><path d="M172 221.1L117 374.9L210 366.9Z" fill="#6566f4" stroke="#6566f4"></path><path d="M190 430.6L56 482.3L208 516.3Z" fill="#6566f4" stroke="#6566f4"></path><path d="M66 281.1L117 374.9L172 221.1Z" fill="#8c81ed" stroke="#8c81ed"></path><path d="M127 75.7L142 137.4L210 99.7Z" fill="#6e6bf3" stroke="#6e6bf3"></path><path d="M210 99.7L142 137.4L249 170.4Z" fill="#6566f4" stroke="#6566f4"></path><path d="M900 461.6L900 313.9L845 394.6Z" fill="#9e92e8" stroke="#9e92e8"></path><path d="M845 394.6L900 313.9L797 332.9Z" fill="#857cee" stroke="#857cee"></path><path d="M900 313.9L900 231.1L808 230.1Z" fill="#4f5cf7" stroke="#4f5cf7"></path><path d="M834 134.4L900 119.7L813 94.7Z" fill="#7671f1" stroke="#7671f1"></path><path d="M900 231.1L900 182.4L808 230.1Z" fill="#8c81ed" stroke="#8c81ed"></path><path d="M114 600L200 600L208 516.3Z" fill="#4f5cf7" stroke="#4f5cf7"></path><path d="M208 516.3L200 600L288 532.3Z" fill="#7e76f0" stroke="#7e76f0"></path><path d="M0 171.4L85 204.4L142 137.4Z" fill="#5b61f6" stroke="#5b61f6"></path><path d="M142 137.4L85 204.4L172 221.1Z" fill="#7671f1" stroke="#7671f1"></path><path d="M808 490.3L900 461.6L845 394.6Z" fill="#7671f1" stroke="#7671f1"></path><path d="M900 480.3L900 461.6L808 490.3Z" fill="#9e92e8" stroke="#9e92e8"></path><path d="M900 0L811 0L813 94.7Z" fill="#4f5cf7" stroke="#4f5cf7"></path><path d="M813 94.7L811 0L734 63.7Z" fill="#6566f4" stroke="#6566f4"></path><path d="M85 204.4L66 281.1L172 221.1Z" fill="#988cea" stroke="#988cea"></path><path d="M117 374.9L66 414.6L190 430.6Z" fill="#857cee" stroke="#857cee"></path><path d="M152 0L127 75.7L210 99.7Z" fill="#7671f1" stroke="#7671f1"></path><path d="M833 600L900 480.3L808 490.3Z" fill="#6e6bf3" stroke="#6e6bf3"></path><path d="M900 182.4L900 119.7L834 134.4Z" fill="#857cee" stroke="#857cee"></path><path d="M699 600L833 600L706 536.3Z" fill="#9e92e8" stroke="#9e92e8"></path><path d="M0 339.9L66 414.6L117 374.9Z" fill="#857cee" stroke="#857cee"></path><path d="M254 0L152 0L210 99.7Z" fill="#6566f4" stroke="#6566f4"></path><path d="M0 406.6L56 482.3L66 414.6Z" fill="#6e6bf3" stroke="#6e6bf3"></path><path d="M66 414.6L56 482.3L190 430.6Z" fill="#5b61f6" stroke="#5b61f6"></path><path d="M56 482.3L114 600L208 516.3Z" fill="#6e6bf3" stroke="#6e6bf3"></path><path d="M833 600L900 600L900 480.3Z" fill="#6566f4" stroke="#6566f4"></path><path d="M900 119.7L900 0L813 94.7Z" fill="#5b61f6" stroke="#5b61f6"></path><path d="M66 281.1L0 339.9L117 374.9Z" fill="#7e76f0" stroke="#7e76f0"></path><path d="M0 227.1L0 339.9L66 281.1Z" fill="#8c81ed" stroke="#8c81ed"></path><path d="M0 227.1L66 281.1L85 204.4Z" fill="#6566f4" stroke="#6566f4"></path><path d="M0 227.1L85 204.4L0 171.4Z" fill="#857cee" stroke="#857cee"></path><path d="M0 171.4L142 137.4L127 75.7Z" fill="#5b61f6" stroke="#5b61f6"></path><path d="M0 339.9L0 406.6L66 414.6Z" fill="#4f5cf7" stroke="#4f5cf7"></path><path d="M56 482.3L0 511.3L114 600Z" fill="#5b61f6" stroke="#5b61f6"></path><path d="M0 49.7L0 171.4L127 75.7Z" fill="#7e76f0" stroke="#7e76f0"></path><path d="M152 0L71 0L127 75.7Z" fill="#6566f4" stroke="#6566f4"></path><path d="M0 406.6L0 511.3L56 482.3Z" fill="#988cea" stroke="#988cea"></path><path d="M71 0L0 49.7L127 75.7Z" fill="#8c81ed" stroke="#8c81ed"></path><path d="M0 511.3L0 600L114 600Z" fill="#7671f1" stroke="#7671f1"></path><path d="M71 0L0 0L0 49.7Z" fill="#4f5cf7" stroke="#4f5cf7"></path></g></svg>